# Blender v2.72 (sub 0) OBJ File: ''
# www.blender.org
mtllib cube.mtl
o Cube
v 1.004351 -0.300214 -1.017722
v 1.004351 -0.300214 0.982278
v -0.995649 -0.077298 0.239226
v -0.995648 -0.077298 -0.274669
v 1.004352 0.299786 -1.017721
v 1.004351 0.299786 0.982279
v -0.995649 0.076871 0.239226
v -0.995649 0.076871 -0.274669
vt 1.000000 0.000000
vt 1.000000 1.000000
vt 0.000000 1.000000
vt 0.000000 0.000000
vn -0.1108 -0.9938 0.0000
vn -0.1108 0.9938 -0.0000
vn 1.0000 -0.0000 0.0000
vn -0.3483 -0.0000 0.9374
vn -1.0000 -0.0000 -0.0000
vn -0.3483 0.0000 -0.9374
usemtl Material
s off
f 2/1/1 3/2/1 4/3/1
f 8/1/2 7/2/2 6/3/2
f 1/4/3 5/1/3 6/2/3
f 2/4/4 6/1/4 7/2/4
f 7/1/5 8/2/5 4/3/5
f 1/1/6 4/2/6 8/3/6
f 1/4/1 2/1/1 4/3/1
f 5/4/2 8/1/2 6/3/2
f 2/3/3 1/4/3 6/2/3
f 3/3/4 2/4/4 7/2/4
f 3/4/5 7/1/5 4/3/5
f 5/4/6 1/1/6 8/3/6
